<svg width="35" height="32" viewBox="0 0 35 32" fill="none" xmlns="http://www.w3.org/2000/svg">
<path d="M0 15.5269C0.180627 14.9356 0.532259 14.4111 1.01055 14.0195C5.16636 9.86311 9.32218 5.71205 13.478 1.56636C14.2963 0.724852 15.3764 0.186719 16.541 0.0403691C17.7055 -0.105981 18.8852 0.148154 19.8862 0.761025C20.2659 1.00028 20.6159 1.28368 20.9289 1.60529C22.1368 2.79718 23.3446 4.00653 24.539 5.19843C24.5641 5.22353 24.592 5.2456 24.6222 5.2642C24.6407 5.17578 24.6519 5.086 24.6558 4.99575C24.6558 4.41591 24.6397 3.83607 24.6558 3.25086C24.6548 2.79854 24.8088 2.35954 25.092 2.00691C25.3753 1.65427 25.7707 1.40928 26.2125 1.31268C26.6422 1.219 27.0909 1.27426 27.485 1.4694C27.8792 1.66453 28.1952 1.98793 28.3812 2.38646C28.5187 2.72799 28.5915 3.0921 28.596 3.46024C28.6121 5.29909 28.596 7.1366 28.6121 8.96337C28.6178 9.14234 28.6884 9.31311 28.8107 9.44389C30.4332 11.0827 32.0732 12.7068 33.6957 14.3457C33.898 14.5172 34.0633 14.728 34.1817 14.9654C34.3002 15.2027 34.3692 15.4616 34.3846 15.7264C34.4001 15.9912 34.3616 16.2564 34.2715 16.5058C34.1815 16.7553 34.0417 16.9839 33.8607 17.1778C33.5338 17.5443 33.0794 17.7724 32.5902 17.8155C32.101 17.8587 31.6137 17.7137 31.2277 17.41C31.0821 17.2917 30.9441 17.1643 30.8143 17.0288L18.2301 4.44275C18.1175 4.27106 17.964 4.13008 17.7834 4.03251C17.6028 3.93495 17.4007 3.88386 17.1954 3.88386C16.9901 3.88386 16.7881 3.93495 16.6074 4.03251C16.4268 4.13008 16.2733 4.27106 16.1607 4.44275C11.9212 8.6654 7.71667 12.8719 3.4933 17.0946C3.18892 17.4579 2.76504 17.7008 2.29773 17.7798C1.83042 17.8588 1.35027 17.7686 0.943447 17.5254C0.476833 17.2157 0.142008 16.7435 0.00402644 16.2007L0 15.5269Z" fill="black"/>
<path d="M20.3828 31.9718V23.2272H13.9907V31.9718C13.8919 31.9842 13.7923 31.9896 13.6927 31.9879C11.9374 31.9879 10.182 32.004 8.42797 31.9879C7.55366 32.0093 6.70189 31.7092 6.03406 31.1444C5.36623 30.5796 4.92874 29.7895 4.80449 28.9236C4.77723 28.715 4.76601 28.5045 4.77093 28.2941V20.3133C4.76417 20.1187 4.79911 19.925 4.87342 19.7451C4.94772 19.5653 5.05967 19.4034 5.20173 19.2704C8.9272 15.5604 12.6473 11.8469 16.362 8.12988C16.4539 7.99228 16.5782 7.87948 16.724 7.80146C16.8699 7.72344 17.0327 7.68262 17.1981 7.68262C17.3635 7.68262 17.5264 7.72344 17.6722 7.80146C17.8181 7.87948 17.9424 7.99228 18.0342 8.12988C21.7597 11.8398 25.4798 15.5533 29.1945 19.2704C29.3396 19.401 29.4537 19.5625 29.5282 19.7429C29.6028 19.9234 29.6359 20.1183 29.6253 20.3133C29.6092 23.0286 29.6253 25.7452 29.6092 28.4606C29.6066 29.2968 29.3091 30.1053 28.769 30.7437C28.2289 31.3821 27.4809 31.8094 26.6567 31.9504C26.4373 31.9834 26.2157 32 25.9938 32H20.6632C20.5814 31.9879 20.4982 31.9879 20.3828 31.9718Z" fill="black"/>
</svg>
