<svg width="32" height="32" viewBox="0 0 32 32" fill="none" xmlns="http://www.w3.org/2000/svg">
<g opacity="0.8">
<path d="M-1.90735e-06 24.8712C0.16147 24.3589 0.365756 23.8611 0.610692 23.383C1.23989 22.4413 2.11093 21.6864 3.13239 21.1974C4.56298 20.4542 6.08571 19.9037 7.66084 19.5605C7.83002 19.5147 8.00664 19.5031 8.18034 19.5266C8.35403 19.55 8.52129 19.6079 8.67231 19.6968C8.82333 19.7858 8.95505 19.904 9.05976 20.0446C9.16446 20.1852 9.24003 20.3453 9.28202 20.5154C9.36737 20.858 9.31416 21.2205 9.13393 21.524C8.9537 21.8276 8.661 22.0478 8.31941 22.1369C7.16789 22.5251 6.0086 22.881 4.8739 23.3196C4.18915 23.5821 3.57321 23.9972 3.07287 24.5334C2.94951 24.6246 2.84899 24.7432 2.77923 24.8798C2.70948 25.0165 2.67239 25.1675 2.67088 25.3209C2.66938 25.4743 2.7035 25.626 2.77056 25.7639C2.83762 25.9019 2.9358 26.0224 3.05735 26.116C3.58828 26.6509 4.22268 27.0718 4.92178 27.3531C6.86593 28.1895 8.9206 28.7408 11.0222 28.9901C13.0868 29.2782 15.1729 29.383 17.256 29.3032C20.3535 29.269 23.4236 28.7184 26.34 27.6741C27.1782 27.3831 27.9619 26.954 28.6586 26.4046C28.7783 26.3031 28.8908 26.1933 28.995 26.0759C29.1034 25.9841 29.1903 25.8695 29.2494 25.7402C29.3084 25.611 29.3383 25.4703 29.3368 25.3282C29.3353 25.1861 29.3025 25.0461 29.2408 24.9181C29.179 24.7901 29.0898 24.6773 28.9795 24.5878C28.4705 24.0326 27.8411 23.6015 27.1396 23.3274C26.036 22.8965 24.9078 22.5367 23.7756 22.1757C23.5629 22.1338 23.3634 22.0412 23.1941 21.9057C23.0248 21.7703 22.8906 21.596 22.803 21.3976C22.7154 21.1992 22.6769 20.9826 22.6908 20.7662C22.7047 20.5498 22.7706 20.3399 22.8829 20.1544C23.0173 19.9157 23.2267 19.7279 23.4786 19.6203C23.7306 19.5127 24.011 19.4912 24.2764 19.5592C26.3061 19.946 28.2371 20.7382 29.9537 21.8884C30.8779 22.4775 31.5612 23.3775 31.8803 24.426C32.0646 25.1338 32.035 25.8803 31.7953 26.5713C31.5555 27.2623 31.1164 27.8667 30.5334 28.3082C29.4354 29.2398 28.163 29.9436 26.7903 30.3786C23.9746 31.3253 21.0351 31.8533 18.0659 31.9457C17.9016 31.9534 17.7373 31.9845 17.573 32H14.4561C14.3617 31.9845 14.2763 31.9612 14.1818 31.9534C12.5761 31.7813 10.9705 31.6713 9.37389 31.4281C7.19389 31.1363 5.08162 30.4658 3.13239 29.4469C2.13473 28.9841 1.2818 28.2586 0.665033 27.348C0.412829 26.8553 0.196624 26.3449 0.0181119 25.821C-1.90735e-06 25.4975 -1.90735e-06 25.1843 -1.90735e-06 24.8712Z" fill="black"/>
<path d="M25.3412 9.37381C25.3275 11.1588 24.806 12.903 23.8377 14.4024C22.4585 16.6204 21.0611 18.8203 19.7569 21.0564C18.8642 22.5911 18.0969 24.197 17.274 25.7796C17.1614 26.0803 16.9444 26.3304 16.6627 26.4843C16.381 26.6383 16.0534 26.6858 15.7396 26.6182C15.5162 26.5666 15.3085 26.4621 15.134 26.3135C14.9595 26.1648 14.8233 25.9764 14.7368 25.7641C13.7574 23.8606 12.7792 21.9493 11.7765 20.0548C10.6954 18.1072 9.50573 16.2218 8.21327 14.4076C7.00868 12.6274 6.48383 10.4735 6.73441 8.33858C6.9889 5.95972 8.14723 3.76949 9.97012 2.22036C11.793 0.671225 14.1412 -0.118467 16.5296 0.0144164C18.9179 0.1473 21.1641 1.19261 22.8039 2.9344C24.4437 4.67619 25.352 6.98139 25.3412 9.37381V9.37381ZM16.0255 13.3051C16.8176 13.3033 17.5913 13.0664 18.2487 12.6245C18.9061 12.1826 19.4176 11.5555 19.7184 10.8226C20.0192 10.0897 20.0958 9.28408 19.9385 8.50765C19.7812 7.73122 19.397 7.01895 18.8346 6.46104C18.2723 5.90313 17.557 5.52469 16.7795 5.37362C16.0019 5.22256 15.197 5.30568 14.4667 5.61245C13.7364 5.91923 13.1136 6.43586 12.677 7.09692C12.2405 7.75797 12.01 8.53372 12.0146 9.32593C12.019 10.3853 12.4434 11.3997 13.1945 12.1466C13.9457 12.8935 14.9624 13.312 16.0216 13.3103L16.0255 13.3051Z" fill="black"/>
<path d="M17.331 9.30903C17.331 9.57052 17.2536 9.82614 17.1085 10.0437C16.9634 10.2612 16.7571 10.4309 16.5157 10.5313C16.2743 10.6317 16.0086 10.6584 15.752 10.6079C15.4955 10.5575 15.2596 10.4321 15.0742 10.2478C14.8888 10.0634 14.7621 9.82828 14.7102 9.572C14.6582 9.31573 14.6833 9.04981 14.7823 8.80779C14.8813 8.56577 15.0498 8.3585 15.2664 8.21211C15.4831 8.06573 15.7382 7.98679 15.9996 7.98525C16.1741 7.98423 16.347 8.01771 16.5085 8.08378C16.67 8.14985 16.8168 8.2472 16.9406 8.37022C17.0643 8.49325 17.1625 8.63953 17.2295 8.80064C17.2965 8.96176 17.331 9.13453 17.331 9.30903V9.30903Z" fill="black"/>
</g>
</svg>
