<svg width="34" height="34" viewBox="0 0 34 34" fill="none" xmlns="http://www.w3.org/2000/svg">
<path opacity="0.8" d="M14.3439 1.00005C12.209 0.994166 10.104 1.50271 8.20669 2.48276C6.30934 3.46281 4.67532 4.88559 3.44258 6.63098C2.20984 8.37637 1.41457 10.3931 1.12391 12.511C0.833249 14.6289 1.05573 16.7857 1.77256 18.7994C2.4894 20.8131 3.67955 22.6245 5.24254 24.0807C6.80553 25.5369 8.69548 26.5952 10.7528 27.1663C12.8102 27.7373 14.9745 27.8042 17.0631 27.3615C19.1518 26.9188 21.1034 25.9794 22.7532 24.6226L30.6943 32.5744C30.816 32.7056 30.9629 32.8109 31.1262 32.884C31.2895 32.9571 31.4659 32.9965 31.6447 32.9998C31.8236 33.0031 32.0013 32.9702 32.1672 32.9032C32.3331 32.8362 32.4837 32.7364 32.6102 32.6097C32.7367 32.4831 32.8364 32.3322 32.9033 32.166C32.9703 31.9999 33.0031 31.822 32.9998 31.6429C32.9965 31.4638 32.9572 31.2872 32.8842 31.1237C32.8112 30.9602 32.706 30.8131 32.5749 30.6912L24.6338 22.7394C26.23 20.7899 27.2401 18.4264 27.5466 15.9242C27.8532 13.4221 27.4434 10.8842 26.3652 8.60618C25.2869 6.32818 23.5845 4.40381 21.4563 3.0572C19.328 1.7106 16.8615 0.997183 14.3439 1.00005V1.00005ZM14.3439 3.66349C16.448 3.66476 18.5044 4.2906 20.2533 5.46191C22.0023 6.63322 23.3652 8.29742 24.1698 10.2442C24.9744 12.1909 25.1846 14.3328 24.7738 16.3992C24.363 18.4655 23.3496 20.3635 21.8619 21.8533C20.3741 23.3431 18.4786 24.3578 16.415 24.7691C14.3515 25.1805 12.2125 24.97 10.2683 24.1643C8.3242 23.3586 6.66223 21.9939 5.4925 20.2426C4.32276 18.4913 3.69776 16.4321 3.69649 14.3253C3.69289 12.9241 3.96584 11.5361 4.49965 10.2409C5.03346 8.94574 5.81761 7.76897 6.80703 6.77822C7.79645 5.78746 8.97165 5.00226 10.2651 4.46773C11.5585 3.9332 12.9447 3.65988 14.3439 3.66349V3.66349Z" fill="black" stroke="black" stroke-width="1.14286"/>
</svg>
