<svg width="32" height="32" viewBox="0 0 32 32" fill="none" xmlns="http://www.w3.org/2000/svg">
<g opacity="0.8">
<path d="M12.2173 0H18.9751C19.2942 0.0965852 19.5759 0.28885 19.7821 0.550787C19.9883 0.812723 20.1091 1.13169 20.1281 1.46453C20.2447 2.5293 20.4279 3.59535 20.5778 4.64346C20.5868 4.72461 20.6159 4.80224 20.6624 4.86935C20.709 4.93646 20.7714 4.99092 20.8443 5.02785C21.3934 5.32768 21.9426 5.64373 22.4918 5.97602C22.555 6.02554 22.6315 6.05515 22.7115 6.06108C22.7916 6.06702 22.8716 6.049 22.9414 6.00933L26.0366 4.76134C26.2097 4.67336 26.3988 4.62124 26.5925 4.60808C26.7862 4.59493 26.9805 4.62102 27.1639 4.68478C27.3473 4.74855 27.5159 4.84869 27.6597 4.97919C27.8034 5.1097 27.9194 5.26788 28.0006 5.44428C28.9819 7.12535 29.9479 8.80642 30.9292 10.5042C31.0442 10.6677 31.1249 10.8528 31.1663 11.0484C31.2077 11.244 31.209 11.446 31.17 11.6421C31.1311 11.8382 31.0528 12.0243 30.9398 12.1893C30.8269 12.3542 30.6816 12.4945 30.5128 12.6017C29.6468 13.2846 28.7987 13.9496 27.916 14.6159C27.8492 14.6618 27.7956 14.7244 27.7606 14.7974C27.7255 14.8705 27.7102 14.9515 27.7162 15.0323C27.7324 15.6644 27.7324 16.2969 27.7162 16.9299C27.71 17.0155 27.725 17.1013 27.7599 17.1798C27.7947 17.2582 27.8483 17.3269 27.916 17.3797C28.7987 18.0459 29.6634 18.7276 30.5295 19.4105C30.6893 19.5153 30.8267 19.651 30.9336 19.8095C31.0404 19.968 31.1146 20.1462 31.1518 20.3338C31.1891 20.5213 31.1885 20.7143 31.1503 20.9017C31.1121 21.089 31.0369 21.2668 30.9292 21.4247C29.9479 23.1391 28.9652 24.8369 27.9673 26.5346C27.8867 26.7114 27.7708 26.8699 27.6267 27.0002C27.4825 27.1305 27.3133 27.2299 27.1293 27.2924C26.9453 27.3548 26.7505 27.3789 26.5568 27.3631C26.3632 27.3474 26.1748 27.2922 26.0033 27.2009C24.972 26.7844 23.9535 26.3847 22.9414 25.9695C22.8647 25.9336 22.7802 25.9178 22.6956 25.9236C22.6111 25.9294 22.5295 25.9567 22.4585 26.0028C21.9255 26.336 21.3772 26.6525 20.811 26.9677C20.7438 27.001 20.6858 27.0503 20.6423 27.1113C20.5987 27.1723 20.5708 27.2431 20.5611 27.3175C20.4112 28.4156 20.2447 29.4957 20.0948 30.5963C20.0891 30.7926 20.0434 30.9856 19.9606 31.1636C19.8778 31.3416 19.7596 31.5008 19.6132 31.6317C19.4668 31.7625 19.2953 31.8621 19.1092 31.9244C18.9231 31.9868 18.7262 32.0105 18.5306 31.9942H12.6464C12.4505 32.0118 12.2531 31.989 12.0664 31.9272C11.8797 31.8653 11.7077 31.7658 11.5611 31.6347C11.4144 31.5037 11.2962 31.3439 11.2139 31.1652C11.1315 30.9866 11.0867 30.793 11.0822 30.5963C10.9323 29.4983 10.7658 28.4181 10.6159 27.3175C10.6094 27.2421 10.5828 27.1699 10.5389 27.1083C10.4949 27.0468 10.4352 26.9982 10.366 26.9677C9.7998 26.6512 9.25148 26.3181 8.68523 26.0028C8.62187 25.9689 8.55218 25.9484 8.48053 25.9427C8.40888 25.9369 8.33682 25.9461 8.26887 25.9695C7.23758 26.3693 6.205 26.7857 5.1737 27.2009C5.00193 27.2909 4.81368 27.345 4.62036 27.3601C4.42703 27.3752 4.23266 27.3508 4.04903 27.2885C3.86539 27.2262 3.69632 27.1273 3.55206 26.9977C3.40779 26.8681 3.29134 26.7105 3.20976 26.5346L0.263202 21.4414C0.150163 21.2801 0.0710849 21.0976 0.030771 20.9048C-0.00954294 20.712 -0.0102525 20.513 0.0286891 20.32C0.0676307 20.1269 0.145409 19.9438 0.257298 19.7817C0.369187 19.6197 0.51285 19.482 0.679562 19.3772C1.54559 18.7442 2.39369 18.0792 3.27638 17.413C3.35088 17.3666 3.40976 17.299 3.44539 17.2188C3.48102 17.1386 3.49177 17.0496 3.47623 16.9632C3.46 16.3311 3.46 15.6986 3.47623 15.0656C3.4822 14.9848 3.46688 14.9038 3.43182 14.8307C3.39675 14.7577 3.34316 14.6951 3.27638 14.6492C2.41034 13.9829 1.56225 13.3179 0.714152 12.6516C0.539393 12.5458 0.388448 12.405 0.270835 12.238C0.153223 12.0709 0.0714978 11.8813 0.0308125 11.6811C-0.00987276 11.4809 -0.00863594 11.2744 0.0344485 11.0747C0.0775329 10.875 0.161529 10.6864 0.281137 10.5208C1.24581 8.85511 2.21177 7.18942 3.17645 5.5109C3.25719 5.32789 3.37475 5.16346 3.5218 5.02787C3.66886 4.89229 3.84226 4.78844 4.03119 4.72281C4.22013 4.65718 4.42056 4.63116 4.61999 4.64639C4.81942 4.66161 5.01357 4.71775 5.19036 4.81131C6.22165 5.22773 7.24014 5.6275 8.26503 6.04265C8.33589 6.07865 8.41524 6.09458 8.49451 6.08871C8.57377 6.08284 8.64992 6.05539 8.7147 6.00933C9.24764 5.67619 9.79681 5.36014 10.3622 5.06116C10.4365 5.02623 10.5003 4.97229 10.5471 4.90479C10.5939 4.8373 10.622 4.75864 10.6287 4.67677C10.7568 3.7286 10.8952 2.77916 11.045 1.83099C11.0984 1.45182 11.1877 1.07857 11.3115 0.716251C11.4691 0.316483 11.8688 0.16657 12.2173 0ZM20.9378 16.0292C20.9429 14.9732 20.6345 13.9394 20.0518 13.0588C19.469 12.1782 18.6381 11.4904 17.6643 11.0824C16.6904 10.6745 15.6174 10.5647 14.5811 10.767C13.5449 10.9694 12.5919 11.4747 11.843 12.2191C11.0941 12.9634 10.5829 13.9133 10.3741 14.9485C10.1653 15.9836 10.2683 17.0575 10.6702 18.034C11.072 19.0105 11.7545 19.8458 12.6313 20.4342C13.5081 21.0225 14.5397 21.3374 15.5955 21.3389C16.2952 21.3419 16.9886 21.2069 17.636 20.9416C18.2834 20.6762 18.8722 20.2858 19.3685 19.7926C19.8649 19.2994 20.2591 18.7131 20.5286 18.0673C20.7981 17.4215 20.9376 16.7289 20.9391 16.0292H20.9378Z" fill="black"/>
</g>
</svg>
